<svg width="185" height="583" viewBox="0 0 185 583" fill="none" xmlns="http://www.w3.org/2000/svg">
<path d="M106.618 62.0771L113.438 95.5589L98.9318 142.162L75.5607 92.0907L78.8035 63.0421L106.618 62.0771Z" fill="#FDB4B4"/>
<path d="M114.705 93.8248H74.3519V146.281H114.705V93.8248Z" fill="#6828ED"/>
<path d="M98.1112 78.9424C113.331 78.9424 125.67 65.6681 125.67 49.2934C125.67 32.9187 113.331 19.6443 98.1112 19.6443C82.8911 19.6443 70.5527 32.9187 70.5527 49.2934C70.5527 65.6681 82.8911 78.9424 98.1112 78.9424Z" fill="#FDB4B4"/>
<path d="M74.1227 71.3406C74.1227 71.3406 53.5806 30.5247 72.1018 10.883C90.6229 -8.75863 105.491 4.18399 105.491 4.18399L113.981 3.81484C113.981 3.81484 115.752 11.0033 118.607 7.11188C121.462 3.22047 126.622 17.3925 126.622 17.3925C136.198 35.947 103.001 40.1036 103.001 40.1036C103.001 40.1036 105.398 48.3189 102.961 50.0394C100.525 51.7599 94.0148 58.232 94.0148 58.232L88.1879 62.9667L84.7251 57.2905C84.7251 57.2905 81.1081 54.2187 79.2806 55.509C77.4532 56.7994 79.9669 73.7774 79.9669 73.7774L74.1227 71.3406Z" fill="#2E2E41"/>
<path d="M41.0626 371.616L30.5262 540.706L56.428 541.65L90.671 373.033L41.0626 371.616Z" fill="#2E2E41"/>
<path d="M103.841 370.672L93.3051 539.761L119.207 540.706L153.45 372.089L103.841 370.672Z" fill="#2E2E41"/>
<path d="M34.718 410.248L48.5068 226.086L27.3611 130.189C25.5381 115.933 33.8866 102.445 46.7717 98.767L67.463 92.8611L76.6212 83.0077L97.452 132.499L110.462 83.0454L120.608 90.9843L150.701 105.268L150.687 105.602L145.86 221.446L156.635 408.608L156.157 408.615L34.718 410.248Z" fill="#E8E9EA"/>
<path d="M117.544 538.784L125.044 562.872C125.044 562.872 154.385 567.164 154.842 576.937C155.298 586.709 114.965 581.053 91.3476 582.33C67.7301 583.607 87.3898 556.091 87.3898 556.091L89.9066 540.279L117.544 538.784Z" fill="#2E2E41"/>
<path d="M56.2952 537.05L63.7951 561.138C63.7951 561.138 93.1366 565.43 93.5932 575.203C94.0498 584.975 53.7165 579.318 30.099 580.595C6.48159 581.872 26.1413 554.356 26.1413 554.356L28.658 538.544L56.2952 537.05Z" fill="#2E2E41"/>
<path d="M19.704 312.442C19.3859 307.692 20.13 302.93 21.8738 298.554L16.2764 249.153L38.2031 246.975L41.5196 297.321C43.7232 301.449 44.9758 306.084 45.1729 310.839C45.8178 322.735 40.639 332.731 33.6051 333.173C26.5713 333.615 20.3471 324.333 19.704 312.442Z" fill="#FDB4B4"/>
<path d="M158.582 319.693C158.312 314.94 159.105 310.187 160.893 305.831L155.796 256.368L177.744 254.447L180.55 304.829C182.712 308.982 183.917 313.632 184.066 318.389C184.59 330.292 179.311 340.227 172.273 340.586C165.235 340.945 159.105 331.591 158.582 319.693Z" fill="#FDB4B4"/>
<path d="M16.1862 292.63L16.1121 292.204L4.68457 226.238L18.1873 118.821C19.3922 109.23 27.3517 102.322 36.3274 103.094C41.0148 103.498 45.2204 105.89 48.1705 109.83C51.1202 113.77 52.3965 118.701 51.7642 123.715L41.6014 204.276L48 290.445L16.1862 292.63Z" fill="#E8E9EA"/>
<path d="M151.81 291.082L128.835 126.085C127.641 121.247 128.34 116.184 130.813 111.882C133.287 107.579 137.185 104.646 141.791 103.621C150.601 101.661 159.301 107.455 161.6 116.81L183.672 289.01L151.81 291.082Z" fill="#E8E9EA"/>
<path d="M98.126 147.581C99.6838 147.581 100.947 146.223 100.947 144.547C100.947 142.871 99.6838 141.512 98.126 141.512C96.5681 141.512 95.3053 142.871 95.3053 144.547C95.3053 146.223 96.5681 147.581 98.126 147.581Z" fill="#D6D7D8"/>
<path d="M98.126 170.558C99.6838 170.558 100.947 169.199 100.947 167.523C100.947 165.847 99.6838 164.488 98.126 164.488C96.5681 164.488 95.3053 165.847 95.3053 167.523C95.3053 169.199 96.5681 170.558 98.126 170.558Z" fill="#D6D7D8"/>
<path d="M98.126 193.534C99.6838 193.534 100.947 192.176 100.947 190.5C100.947 188.824 99.6838 187.465 98.126 187.465C96.5681 187.465 95.3053 188.824 95.3053 190.5C95.3053 192.176 96.5681 193.534 98.126 193.534Z" fill="#D6D7D8"/>
<path d="M98.126 216.511C99.6838 216.511 100.947 215.152 100.947 213.476C100.947 211.8 99.6838 210.442 98.126 210.442C96.5681 210.442 95.3053 211.8 95.3053 213.476C95.3053 215.152 96.5681 216.511 98.126 216.511Z" fill="#D6D7D8"/>
<path d="M98.126 239.487C99.6838 239.487 100.947 238.129 100.947 236.453C100.947 234.777 99.6838 233.418 98.126 233.418C96.5681 233.418 95.3053 234.777 95.3053 236.453C95.3053 238.129 96.5681 239.487 98.126 239.487Z" fill="#D6D7D8"/>
<path d="M98.126 262.464C99.6838 262.464 100.947 261.105 100.947 259.429C100.947 257.753 99.6838 256.395 98.126 256.395C96.5681 256.395 95.3053 257.753 95.3053 259.429C95.3053 261.105 96.5681 262.464 98.126 262.464Z" fill="#D6D7D8"/>
<path d="M98.126 285.44C99.6838 285.44 100.947 284.082 100.947 282.406C100.947 280.73 99.6838 279.371 98.126 279.371C96.5681 279.371 95.3053 280.73 95.3053 282.406C95.3053 284.082 96.5681 285.44 98.126 285.44Z" fill="#D6D7D8"/>
<path d="M98.126 308.417C99.6838 308.417 100.947 307.058 100.947 305.382C100.947 303.706 99.6838 302.348 98.126 302.348C96.5681 302.348 95.3053 303.706 95.3053 305.382C95.3053 307.058 96.5681 308.417 98.126 308.417Z" fill="#D6D7D8"/>
<path d="M98.1294 326.191L44.7593 318.539L43.7315 318.392L16.4553 250.728L0.211426 210.443H42.5219L98.1294 326.191Z" fill="#6828ED"/>
</svg>
