<svg width="160" height="557" viewBox="0 0 160 557" fill="none" xmlns="http://www.w3.org/2000/svg">
<path d="M55.8619 41.6025L89.7933 21.6039V78.7428H50.5509L55.8619 41.6025Z" fill="#2E2E41"/>
<path d="M97.0682 54.3416L100.2 82.3935L77.6305 130.747L63.622 85.7426L70.208 53.4098L97.0682 54.3416Z" fill="#FDB4B4"/>
<path d="M101.367 84.0681H62.3984V134.724H101.367V84.0681Z" fill="#6828ED"/>
<path d="M133.514 352.327L143.689 515.615L118.676 516.527L85.608 353.696L133.514 352.327Z" fill="#2E2E41"/>
<path d="M72.8895 351.415L83.0643 514.702L58.0513 515.615L24.9833 352.784L72.8895 351.415Z" fill="#2E2E41"/>
<path d="M159.941 386.96L159.345 386.958L0 386.398L0.142999 385.791L41.11 211.165L30.8479 123.038C28.9036 106.339 37.2127 90.555 51.5241 83.7624L56.6907 81.3104L66.5062 73.6309L79.0626 121.366L99.1704 73.5936L108.028 83.1221L128.005 88.8245C140.456 92.3783 148.523 105.412 146.769 119.141L146.747 119.237L116.241 212.889L159.941 386.96Z" fill="#E8E9EA"/>
<path d="M59.6573 513.759L86.3461 515.202L88.7765 530.472C88.7765 530.472 107.762 557.044 84.9546 555.81C62.1475 554.577 23.1982 560.04 23.6391 550.603C24.08 541.165 52.4147 537.021 52.4147 537.021L59.6573 513.759Z" fill="#2E2E41"/>
<path d="M118.804 512.085L145.493 513.528L147.923 528.797C147.923 528.797 166.909 555.369 144.101 554.136C121.294 552.903 82.3452 558.366 82.7861 548.928C83.227 539.491 111.562 535.346 111.562 535.346L118.804 512.085Z" fill="#2E2E41"/>
<path d="M143.244 293.509C142.623 304.992 136.613 313.955 129.82 313.529C123.028 313.102 118.027 303.449 118.649 291.962C118.84 287.369 120.049 282.893 122.177 278.907L125.38 230.288L146.554 232.392L141.149 280.097C142.833 284.324 143.551 288.922 143.244 293.509Z" fill="#FDB4B4"/>
<path d="M34.4316 289.142C33.5835 300.609 27.3969 309.432 20.6144 308.85C13.8319 308.268 9.02293 298.502 9.87282 287.032C10.1539 282.445 11.4519 277.998 13.6582 274.061L17.8221 225.527L38.9501 228.115L32.6021 275.686C34.2021 279.95 34.8294 284.564 34.4316 289.142Z" fill="#FDB4B4"/>
<path d="M146.654 274.395L115.902 272.283L115.94 271.787L122.082 189.056L112.269 111.26C111.658 106.414 112.891 101.648 115.742 97.8394C118.593 94.0305 122.659 91.7185 127.19 91.3282C135.866 90.5924 143.559 97.2599 144.724 106.529L157.764 210.264L157.75 210.341L146.654 274.395Z" fill="#E8E9EA"/>
<path d="M39.5513 271.226L8.75052 269.222L8.81802 268.699L30.0574 102.969C32.2912 93.8671 40.7042 88.2684 49.2166 90.1623C53.6682 91.1528 57.436 93.9885 59.827 98.1476C62.218 102.307 62.8939 107.2 61.7295 111.927L39.5513 271.226Z" fill="#E8E9EA"/>
<path d="M78.4088 135.98C79.9131 135.98 81.1326 134.668 81.1326 133.049C81.1326 131.431 79.9131 130.119 78.4088 130.119C76.9044 130.119 75.6849 131.431 75.6849 133.049C75.6849 134.668 76.9044 135.98 78.4088 135.98Z" fill="#D6D7D8"/>
<path d="M78.4088 158.168C79.9131 158.168 81.1326 156.856 81.1326 155.238C81.1326 153.619 79.9131 152.307 78.4088 152.307C76.9044 152.307 75.6849 153.619 75.6849 155.238C75.6849 156.856 76.9044 158.168 78.4088 158.168Z" fill="#D6D7D8"/>
<path d="M78.4088 180.356C79.9131 180.356 81.1326 179.044 81.1326 177.426C81.1326 175.807 79.9131 174.495 78.4088 174.495C76.9044 174.495 75.6849 175.807 75.6849 177.426C75.6849 179.044 76.9044 180.356 78.4088 180.356Z" fill="#D6D7D8"/>
<path d="M78.4088 202.544C79.9131 202.544 81.1326 201.232 81.1326 199.614C81.1326 197.995 79.9131 196.683 78.4088 196.683C76.9044 196.683 75.6849 197.995 75.6849 199.614C75.6849 201.232 76.9044 202.544 78.4088 202.544Z" fill="#D6D7D8"/>
<path d="M78.4088 224.732C79.9131 224.732 81.1326 223.42 81.1326 221.802C81.1326 220.183 79.9131 218.871 78.4088 218.871C76.9044 218.871 75.6849 220.183 75.6849 221.802C75.6849 223.42 76.9044 224.732 78.4088 224.732Z" fill="#D6D7D8"/>
<path d="M78.4088 246.92C79.9131 246.92 81.1326 245.608 81.1326 243.99C81.1326 242.371 79.9131 241.059 78.4088 241.059C76.9044 241.059 75.6849 242.371 75.6849 243.99C75.6849 245.608 76.9044 246.92 78.4088 246.92Z" fill="#D6D7D8"/>
<path d="M78.4088 269.109C79.9131 269.109 81.1326 267.797 81.1326 266.178C81.1326 264.56 79.9131 263.248 78.4088 263.248C76.9044 263.248 75.6849 264.56 75.6849 266.178C75.6849 267.797 76.9044 269.109 78.4088 269.109Z" fill="#D6D7D8"/>
<path d="M78.4088 291.297C79.9131 291.297 81.1326 289.985 81.1326 288.366C81.1326 286.748 79.9131 285.436 78.4088 285.436C76.9044 285.436 75.6849 286.748 75.6849 288.366C75.6849 289.985 76.9044 291.297 78.4088 291.297Z" fill="#D6D7D8"/>
<path d="M82.5438 68.6582C96.6147 68.6582 108.022 56.3861 108.022 41.2477C108.022 26.1093 96.6147 13.8372 82.5438 13.8372C68.4728 13.8372 57.066 26.1093 57.066 41.2477C57.066 56.3861 68.4728 68.6582 82.5438 68.6582Z" fill="#FDB4B4"/>
<path d="M95.8956 9.24931C97.1164 11.9207 95.1803 15.2575 92.6179 16.3806C90.0555 17.5037 87.1609 17.0487 84.4283 16.5812C81.6957 16.1137 78.797 15.6704 76.2421 16.8133C72.9364 18.2923 71.073 22.0021 69.4673 25.4447C66.4698 31.8715 63.4723 38.2983 60.4747 44.7251C59.0102 47.8651 57.5124 51.1462 57.4842 54.6593C57.4324 61.1077 62.1872 66.261 64.7454 72.0928C67.8602 79.1934 67.6034 87.8951 64.0761 94.7687C60.5489 101.642 53.8412 106.512 46.5965 107.46C44.6904 107.709 42.673 107.682 40.9593 106.75C39.2455 105.819 37.9375 103.784 38.2549 101.747C38.8756 97.7618 44.5353 96.8307 45.5747 92.948C46.1173 90.9212 45.1564 88.7567 43.8609 87.1736C42.5653 85.5905 40.9271 84.3556 39.6914 82.7181C36.842 78.9422 36.6522 73.1134 39.2489 69.1322C40.775 66.7925 43.1353 65.0542 44.1216 62.4001C44.9623 60.1379 44.657 57.595 44.3386 55.183C43.9295 52.0835 43.5203 48.984 43.1112 45.8845C42.6339 42.2683 42.1638 38.5224 43.1072 35.0137C45.269 26.9733 53.7076 23.197 58.6564 16.7386C60.956 13.7374 62.5029 10.128 64.8622 7.18084C68.8213 2.23508 75.0542 -0.493245 81.0982 0.0739069C87.1421 0.641069 92.8419 4.48916 95.9454 10.0977" fill="#2E2E41"/>
<path d="M91.8734 9.75629C90.6287 10.2352 90.1668 11.9794 90.5251 13.3484C90.8834 14.7174 91.8216 15.8051 92.6804 16.8864C102.393 29.1153 104.651 47.6128 98.2015 62.1249C96.4862 65.985 94.2011 69.6177 93.2759 73.7789C92.6026 76.8066 92.6388 80.1278 91.0776 82.7489C89.4881 85.4175 86.3384 87.2056 86.0268 90.3573C85.8269 92.3799 86.9728 94.3445 88.5088 95.5303C90.0448 96.7161 91.9213 97.2586 93.7666 97.701C98.5628 98.8509 103.467 99.4786 108.38 99.5715C109.982 99.6019 111.635 99.5646 113.104 98.8779C114.573 98.1913 115.828 96.7021 115.844 94.9787C115.857 93.6242 115.131 92.3746 115.039 91.0237C114.761 86.9758 119.824 84.8223 120.81 80.9046C121.459 78.3289 120.181 75.6784 118.82 73.4476C117.459 71.2168 115.906 68.8743 115.939 66.206C115.971 63.6516 117.461 61.402 118.04 58.9245C118.841 55.4976 117.857 51.9132 116.881 48.5392C116.052 45.6708 115.222 42.8023 114.392 39.9339C113.51 36.8846 112.628 33.8354 111.746 30.7861C110.206 25.4627 108.59 19.985 105.257 15.7154C101.925 11.4458 96.4029 8.64737 91.4806 10.3906" fill="#2E2E41"/>
<path d="M109.235 115.972L107.488 115.425C111.126 102.004 103.282 76.9597 103.203 76.7084L104.924 76.0768C105.257 77.1274 113.032 101.964 109.235 115.972Z" fill="#3F3C57"/>
<path d="M108.361 131.387C112.558 131.387 115.96 127.727 115.96 123.213C115.96 118.698 112.558 115.038 108.361 115.038C104.165 115.038 100.763 118.698 100.763 123.213C100.763 127.727 104.165 131.387 108.361 131.387Z" fill="#3F3C57"/>
<path d="M58.4369 152.153H53.829C53.3263 152.153 52.9195 151.715 52.9195 151.175C52.9195 150.634 53.3263 150.196 53.829 150.196H58.4369C59.707 150.196 60.8999 149.664 61.797 148.697C62.6932 147.73 63.1861 146.446 63.1834 145.08L63.1275 114.544C63.1275 107.911 58.1128 102.515 51.9487 102.515C45.7846 102.515 40.769 107.911 40.769 114.542L40.8249 143.124C40.8303 145.912 42.9433 148.198 45.535 148.22L48.6979 148.245C49.1997 148.25 49.6038 148.691 49.6003 149.232C49.5967 149.769 49.19 150.202 48.6908 150.202H48.6837L45.5208 150.177C41.9361 150.147 39.013 146.984 39.0059 143.128L38.95 114.544C38.95 106.832 44.781 100.558 51.9487 100.558C59.1155 100.558 64.9465 106.832 64.9465 114.542L65.0025 145.076C65.006 146.965 64.3248 148.742 63.084 150.079C61.844 151.416 60.1929 152.153 58.4369 152.153Z" fill="#3F3C57"/>
<path d="M48.6911 152.692C50.4714 152.692 51.9147 151.139 51.9147 149.224C51.9147 147.308 50.4714 145.756 48.6911 145.756C46.9107 145.756 45.4675 147.308 45.4675 149.224C45.4675 151.139 46.9107 152.692 48.6911 152.692Z" fill="#3F3C57"/>
<path d="M53.8287 154.643C55.6091 154.643 57.0523 153.09 57.0523 151.175C57.0523 149.259 55.6091 147.707 53.8287 147.707C52.0484 147.707 50.6051 149.259 50.6051 151.175C50.6051 153.09 52.0484 154.643 53.8287 154.643Z" fill="#3F3C57"/>
</svg>
