<svg width="517" height="636" viewBox="0 0 517 636" fill="none" xmlns="http://www.w3.org/2000/svg">
<g clip-path="url(#clip0_13_86)">
<path d="M225.144 634.361H190.141C188.643 634.361 187.423 632.781 187.423 630.839V592.649C187.423 590.708 188.643 589.128 190.141 589.128H225.144C226.642 589.128 227.861 590.708 227.861 592.649V630.839C227.861 632.781 226.642 634.361 225.144 634.361Z" fill="#F2F2F2"/>
<path d="M65.6208 616.078C65.1558 616.1 64.6954 615.974 64.3021 615.719C63.9087 615.463 63.6014 615.089 63.4218 614.648C63.2423 614.207 63.199 613.72 63.298 613.253C63.397 612.786 63.6334 612.361 63.9753 612.037L64.1309 611.402C64.1104 611.351 64.0898 611.3 64.0691 611.25C63.6006 610.113 62.8155 609.144 61.8125 608.465C60.8095 607.785 59.6333 607.425 58.4316 607.43C57.2299 607.434 56.0563 607.803 55.0583 608.491C54.0602 609.178 53.2822 610.153 52.822 611.292C50.9824 615.841 48.6404 620.398 48.0638 625.208C47.8098 627.334 47.9169 629.489 48.3804 631.578C44.0599 621.901 41.8164 611.383 41.8019 600.738C41.801 598.066 41.9456 595.397 42.2349 592.742C42.474 590.566 42.8057 588.405 43.2301 586.26C45.5458 574.619 50.5177 563.709 57.7376 554.424C61.232 552.467 64.058 549.456 65.8347 545.798C66.4783 544.484 66.9332 543.08 67.1853 541.632C66.7911 541.685 65.699 535.521 65.9963 535.142C65.4469 534.287 64.4637 533.861 63.8638 533.026C60.8799 528.872 56.7689 529.597 54.6229 535.242C50.0383 537.618 49.9939 541.558 52.8069 545.347C54.5966 547.758 54.8425 551.02 56.4129 553.601C56.2513 553.814 56.0832 554.019 55.9217 554.232C52.9685 558.131 50.3946 562.318 48.2368 566.732C48.7616 561.787 48.1353 556.784 46.4095 552.135C44.6604 547.803 41.382 544.154 38.495 540.409C37.7315 539.402 36.6945 538.651 35.5153 538.25C34.336 537.849 33.0674 537.816 31.8699 538.155C30.6723 538.494 29.5995 539.19 28.787 540.155C27.9746 541.12 27.459 542.31 27.3054 543.576C27.2995 543.631 27.2937 543.686 27.2881 543.742C27.7169 543.99 28.1366 544.254 28.5473 544.533C29.0633 544.887 29.4631 545.392 29.6943 545.983C29.9255 546.575 29.9774 547.224 29.8432 547.846C29.709 548.468 29.3949 549.034 28.9421 549.469C28.4893 549.905 27.9189 550.19 27.3056 550.287L27.2428 550.297C27.3956 551.884 27.6656 553.457 28.0506 555.001C24.3469 569.708 32.3429 575.064 43.76 575.305C44.012 575.438 44.2576 575.57 44.5097 575.697C42.3418 582.005 40.9819 588.575 40.4644 595.244C40.1713 599.178 40.1886 603.13 40.516 607.061L40.4967 606.922C39.6694 602.55 37.3983 598.606 34.0668 595.755C29.1187 591.581 22.1279 590.044 16.7898 586.689C16.2225 586.315 15.5628 586.116 14.8887 586.114C14.2145 586.112 13.5539 586.309 12.9848 586.68C12.4157 587.051 11.9618 587.582 11.6768 588.209C11.3917 588.836 11.2873 589.534 11.3759 590.22L11.3977 590.367C12.1934 590.7 12.9682 591.083 13.7176 591.515C14.1464 591.763 14.5661 592.027 14.9768 592.306C15.4928 592.66 15.8926 593.165 16.1238 593.756C16.355 594.348 16.407 594.997 16.2727 595.619C16.1385 596.241 15.8244 596.807 15.3716 597.243C14.9188 597.678 14.3484 597.963 13.7351 598.06L13.6723 598.07C13.6271 598.077 13.5882 598.084 13.5431 598.09C14.9028 601.424 16.8111 604.492 19.1845 607.16C21.5003 619.999 31.4467 621.217 42.0863 617.478H42.0928C43.2602 622.687 44.9516 627.757 47.1398 632.606H65.1691C65.2338 632.4 65.2919 632.188 65.3501 631.982C63.6812 632.09 62.0058 631.988 60.3612 631.677C61.6989 629.992 63.0366 628.293 64.3743 626.608C64.4041 626.576 64.4322 626.543 64.4583 626.508C65.1368 625.646 65.8218 624.79 66.5004 623.927L66.5007 623.926C66.5369 621.282 66.2407 618.644 65.6208 616.078Z" fill="#F2F2F2"/>
<path d="M499.638 147.157C499.638 145.638 497.915 144.407 495.789 144.407C493.662 144.407 491.939 145.638 491.939 147.157C491.939 148.676 493.662 149.907 495.789 149.907C497.915 149.907 499.638 148.676 499.638 147.157Z" fill="#F2F2F2"/>
<path d="M471.351 156.094C473.477 156.094 475.201 154.863 475.201 153.344C475.201 151.825 473.477 150.594 471.351 150.594C469.225 150.594 467.501 151.825 467.501 153.344C467.501 154.863 469.225 156.094 471.351 156.094Z" fill="#F2F2F2"/>
<path d="M505.497 169.499C507.623 169.499 509.347 168.268 509.347 166.749C509.347 165.231 507.623 164 505.497 164C503.371 164 501.647 165.231 501.647 166.749C501.647 168.268 503.371 169.499 505.497 169.499Z" fill="#F2F2F2"/>
<path d="M515.627 175.823C515.439 175.842 515.249 175.824 515.067 175.771C514.656 175.574 514.305 175.266 514.05 174.881C513.794 174.496 513.645 174.048 513.616 173.583C513.505 173.098 513.54 172.589 513.717 172.125C513.894 171.661 514.204 171.263 514.607 170.984C514.717 170.926 514.835 170.888 514.957 170.871C515.888 170.737 516.788 171.744 516.968 173.111C517.148 174.477 516.548 175.689 515.627 175.823Z" fill="#F2F2F2"/>
<path d="M297.735 217.047C297.551 215.68 296.652 214.678 295.726 214.809C294.8 214.94 294.198 216.154 294.381 217.521C294.565 218.888 295.464 219.89 296.39 219.759C297.316 219.628 297.918 218.413 297.735 217.047Z" fill="#F2F2F2"/>
<path d="M488.513 162.619C487.587 162.75 486.985 163.965 487.168 165.331C487.352 166.698 488.251 167.7 489.177 167.569C490.103 167.438 490.705 166.224 490.522 164.857C490.338 163.49 489.439 162.488 488.513 162.619Z" fill="#F2F2F2"/>
<path d="M501.631 156.926C501.448 155.559 500.548 154.557 499.622 154.688C498.696 154.819 498.094 156.034 498.278 157.4C498.461 158.767 499.36 159.769 500.286 159.638C501.212 159.507 501.814 158.293 501.631 156.926Z" fill="#F2F2F2"/>
<path d="M482.003 150.776C482.929 150.645 483.531 149.431 483.347 148.064C483.164 146.698 482.264 145.696 481.338 145.827C480.412 145.958 479.81 147.172 479.994 148.539C480.177 149.906 481.077 150.907 482.003 150.776Z" fill="#F2F2F2"/>
<path d="M390.254 293.263H327.592C324.526 293.263 321.585 294.513 319.417 296.74C317.249 298.966 316.031 301.985 316.031 305.133C316.031 308.281 317.249 311.301 319.417 313.527C321.585 315.753 324.526 317.004 327.592 317.004H390.254C393.32 317.004 396.261 315.753 398.429 313.527C400.597 311.301 401.815 308.281 401.815 305.133C401.815 301.985 400.597 298.966 398.429 296.74C396.261 294.513 393.32 293.263 390.254 293.263Z" fill="#F2F2F2"/>
<path d="M433.916 292.236C432.015 292.216 430.131 292.59 428.374 293.335C426.617 294.08 425.024 295.18 423.691 296.571C421.477 298.844 420.226 301.923 420.209 305.138C420.209 312.247 426.352 318.031 433.916 318.031H479.609C479.879 317.692 480.149 317.343 480.42 317.004C480.69 316.665 480.95 316.326 481.21 315.976H433.916C427.563 315.976 422.39 311.117 422.39 305.138C422.398 303.774 422.671 302.424 423.191 301.169C423.712 299.913 424.47 298.776 425.422 297.824C426.542 296.691 427.869 295.796 429.326 295.189C430.784 294.583 432.343 294.277 433.916 294.29H496.098C496.298 293.972 496.488 293.653 496.678 293.335C496.898 292.965 497.118 292.605 497.328 292.236H433.916Z" fill="#F2F2F2"/>
<path d="M283.095 127.873H272.479C272.191 127.873 271.906 127.931 271.641 128.044C271.375 128.157 271.133 128.323 270.93 128.532C270.726 128.741 270.565 128.989 270.455 129.262C270.345 129.535 270.288 129.827 270.288 130.123V141.033C270.288 141.328 270.345 141.621 270.455 141.894C270.565 142.167 270.726 142.415 270.93 142.624C271.133 142.832 271.375 142.998 271.641 143.111C271.907 143.224 272.191 143.282 272.479 143.282H283.095C283.677 143.283 284.235 143.046 284.648 142.625C285.061 142.203 285.294 141.63 285.296 141.033V130.123C285.294 129.525 285.061 128.952 284.648 128.531C284.235 128.109 283.677 127.872 283.095 127.873Z" fill="#F2F2F2"/>
<path d="M283.095 422.706H272.479C272.191 422.706 271.906 422.764 271.641 422.877C271.375 422.99 271.133 423.156 270.93 423.365C270.726 423.574 270.565 423.822 270.455 424.095C270.345 424.368 270.288 424.66 270.288 424.956V435.866C270.288 436.161 270.345 436.454 270.455 436.727C270.565 437 270.726 437.248 270.93 437.457C271.133 437.666 271.375 437.831 271.641 437.944C271.907 438.057 272.191 438.116 272.479 438.115H283.095C283.677 438.116 284.235 437.88 284.648 437.458C285.061 437.036 285.294 436.463 285.296 435.866V424.956C285.294 424.358 285.061 423.786 284.648 423.364C284.235 422.942 283.677 422.705 283.095 422.706Z" fill="#F2F2F2"/>
<path d="M429.524 134.546H396.507C394.886 134.546 393.331 135.207 392.184 136.384C391.038 137.562 390.394 139.158 390.394 140.823C390.394 142.487 391.038 144.084 392.184 145.261C393.331 146.438 394.886 147.1 396.507 147.1H429.524C431.145 147.1 432.7 146.438 433.846 145.261C434.993 144.084 435.637 142.487 435.637 140.823C435.637 139.158 434.993 137.562 433.846 136.384C432.7 135.207 431.145 134.546 429.524 134.546Z" fill="#F2F2F2"/>
<path d="M473.356 165.93H352.665C346.788 165.934 341.152 168.332 336.995 172.598C332.839 176.865 330.5 182.65 330.494 188.684V226.006C330.5 232.043 332.837 237.83 336.993 242.1C341.15 246.37 346.786 248.772 352.665 248.781H473.356C479.236 248.774 484.873 246.372 489.029 242.102C493.186 237.832 495.523 232.043 495.527 226.006V188.684C495.522 182.649 493.184 176.863 489.027 172.596C484.87 168.33 479.234 165.932 473.356 165.93ZM493.086 226.006C493.084 231.378 491.005 236.53 487.305 240.328C483.605 244.127 478.588 246.262 473.356 246.264H386.712C384.313 246.266 381.916 246.102 379.539 245.771H379.529C379.348 245.751 379.158 245.72 378.978 245.689C366.189 243.784 354.495 237.212 346.04 227.178C337.584 217.143 332.932 204.316 332.935 191.047V188.684C332.944 183.315 335.026 178.169 338.725 174.374C342.423 170.578 347.436 168.443 352.665 168.436H473.356C478.585 168.441 483.6 170.576 487.298 174.372C490.997 178.168 493.078 183.315 493.086 188.684V226.006Z" fill="#F2F2F2"/>
<path d="M319.048 366.838H319.028C249.883 353.678 196.596 269.008 196.596 166.567V157.917C196.596 117.092 219.858 83.8182 248.432 83.8182L485.616 75.5588C484.085 72.4564 486.323 77.6647 484.672 74.6445H248.432C216.306 74.6445 190.172 111.976 190.172 157.917V294.496C190.172 340.446 216.306 377.85 248.432 377.85H442.941C445.892 374.85 439.792 380.727 442.594 377.583L337.897 368.635C331.573 368.643 325.262 368.041 319.048 366.838Z" fill="#F2F2F2"/>
<path d="M112.208 225.092C110.976 225.687 109.715 226.215 108.429 226.673C106.857 224.094 104.934 221.76 102.718 219.741C103.332 222.51 103.589 225.35 103.482 228.188C96.4929 229.877 89.2807 230.374 82.1343 229.659C82.8774 226.902 83.6205 224.141 84.3636 221.376C82.3485 223.54 79.7771 225.074 76.9476 225.8C74.1181 226.525 71.1463 226.412 68.3767 225.474C73.2032 223.322 77.3026 219.754 80.1599 215.217C81.5601 212.943 82.4711 210.387 82.8318 207.721C83.1924 205.056 82.9944 202.342 82.2511 199.762C81.041 196.001 78.5251 192.764 77.6016 188.938C76.4126 184.011 80.4889 179.793 81.2957 174.812C82.283 168.708 108.663 177.799 107.718 180.796C109.671 182.148 109.735 185.112 108.928 187.38C108.121 189.658 106.646 191.652 106.125 194.007C105.616 196.361 112.463 218.749 109.767 217.637C111.235 219.843 112.08 222.424 112.208 225.092Z" fill="#2F2E41"/>
<path d="M148.42 291.839L96.766 266.92C94.5807 265.858 92.8898 263.956 92.0582 261.624C91.2266 259.293 91.321 256.72 92.321 254.459C92.8384 253.29 93.5822 252.241 94.5073 251.377C95.4323 250.512 96.5191 249.85 97.7015 249.431C98.8838 249.012 100.137 248.844 101.384 248.938C102.632 249.033 103.848 249.387 104.957 249.979L157.84 277.553L190.661 292.917C191.877 291.77 193.406 291.035 195.043 290.812C196.679 290.589 198.342 290.888 199.807 291.67C201.272 292.451 202.467 293.676 203.23 295.179C203.993 296.682 204.287 298.39 204.071 300.07C203.856 301.751 203.142 303.322 202.027 304.572C200.911 305.821 199.448 306.687 197.837 307.053C196.225 307.419 194.543 307.267 193.018 306.617C191.494 305.967 190.201 304.851 189.316 303.42L148.42 291.839Z" fill="#3F3D56"/>
<path d="M105.061 276.871C104.506 277.09 103.896 277.116 103.325 276.945C102.754 276.774 102.254 276.415 101.901 275.923C101.454 275.325 100.837 274.885 100.135 274.665C99.9984 274.624 99.8597 274.592 99.7195 274.57C98.8711 274.456 98.062 274.134 97.3608 273.631C96.6597 273.128 96.0872 272.458 95.692 271.679C94.4275 269.095 91.7713 266.934 89.2442 265.382C86.4789 263.684 83.5824 262.114 81.2933 259.786C77.9914 256.427 76.0542 251.063 79.9375 246.661C81.6174 244.815 83.8657 243.62 86.3035 243.278C91.3911 242.492 96.2347 244.625 100.849 246.711L99.4153 244.968C104.417 247.337 109.833 248.644 115.338 248.811C114.633 249.864 115.793 251.351 117.033 251.463C118.281 251.404 119.492 251.01 120.546 250.321C121.965 249.636 123.819 249.218 124.827 250.908C125.057 251.319 125.202 251.775 125.252 252.246C125.302 252.717 125.257 253.194 125.12 253.647C122.695 262.255 118.563 270.256 112.983 277.147C111.743 278.676 110.256 280.246 108.33 280.469C106.404 280.692 104.263 278.685 105.061 276.871Z" fill="#3F3D56"/>
<path d="M148.42 291.839L96.766 266.92C94.5807 265.858 92.8898 263.956 92.0582 261.624C91.2266 259.293 91.321 256.72 92.321 254.459C92.8384 253.29 93.5822 252.241 94.5073 251.377C95.4323 250.512 96.5191 249.85 97.7015 249.431C98.8838 249.012 100.137 248.844 101.384 248.938C102.632 249.033 103.848 249.387 104.957 249.979L157.84 277.553L190.661 292.917C191.877 291.77 193.406 291.035 195.043 290.812C196.679 290.589 198.342 290.888 199.807 291.67C201.272 292.451 202.467 293.676 203.23 295.179C203.993 296.682 204.287 298.39 204.071 300.07C203.856 301.751 203.142 303.322 202.027 304.572C200.911 305.821 199.448 306.687 197.837 307.053C196.225 307.419 194.543 307.267 193.018 306.617C191.494 305.967 190.201 304.851 189.316 303.42L148.42 291.839Z" fill="#A0616A"/>
<path d="M105.061 276.871C104.506 277.09 103.896 277.116 103.325 276.945C102.754 276.774 102.254 276.415 101.901 275.923C101.454 275.325 100.837 274.885 100.135 274.665C99.9984 274.624 99.8597 274.592 99.7195 274.57C98.8711 274.456 98.062 274.134 97.3608 273.631C96.6597 273.128 96.0872 272.458 95.692 271.679C94.4275 269.095 91.7713 266.934 89.2442 265.382C86.4789 263.684 83.5824 262.114 81.2933 259.786C77.9914 256.427 76.0542 251.063 79.9375 246.661C81.6174 244.815 83.8657 243.62 86.3035 243.278C91.3911 242.492 96.2347 244.625 100.849 246.711L99.4153 244.968C104.417 247.337 109.833 248.644 115.338 248.811C114.633 249.864 115.793 251.351 117.033 251.463C118.281 251.404 119.492 251.01 120.546 250.321C121.965 249.636 123.819 249.218 124.827 250.908C125.057 251.319 125.202 251.775 125.252 252.246C125.302 252.717 125.257 253.194 125.12 253.647C122.695 262.255 118.563 270.256 112.983 277.147C111.743 278.676 110.256 280.246 108.33 280.469C106.404 280.692 104.263 278.685 105.061 276.871Z" fill="#6828ED"/>
<path d="M102.553 611.341H114.036L119.499 565.862L102.551 565.863L102.553 611.341Z" fill="#A0616A"/>
<path d="M117.857 612.403V604.409L114.838 604.599L102.55 605.346L99.7055 605.526L97.5312 632.296L97.4147 633.732H105.568L105.831 632.306L107.015 625.828L110.072 632.306L110.742 633.732H132.359C133.646 633.723 134.877 633.194 135.786 632.259C136.694 631.324 137.207 630.059 137.213 628.738C138.125 624.363 120.148 614.904 117.857 612.403Z" fill="#2F2E41"/>
<path d="M74.938 385.084L92.9781 492.292L100.226 578.181L124.214 582.964L128.573 470.698L114.625 393.82L74.938 385.084Z" fill="#2F2E41"/>
<path d="M192.777 567.659L204.078 565.572L201.62 519.818L184.94 522.897L192.777 567.659Z" fill="#A0616A"/>
<path d="M208.022 565.923L206.645 558.056L203.707 558.791L191.74 561.758L188.972 562.451L191.444 589.195L191.576 590.629L199.602 589.148L199.614 587.697L199.663 581.106L203.789 586.927L204.694 588.208L225.97 584.282C227.235 584.04 228.355 583.296 229.089 582.21C229.822 581.125 230.109 579.787 229.887 578.486C230.031 574.014 210.708 567.969 208.022 565.923Z" fill="#2F2E41"/>
<path d="M61.0877 343.276L60.3505 363.615C60.3505 363.615 50.1546 409.63 82.1818 415.654C114.209 421.679 157.586 432.564 157.586 432.564L186.246 535.708L203.254 532.626C203.254 532.626 201.253 445.306 198.252 432.979C195.25 420.651 200.74 406.799 173.983 395.234C147.226 383.669 120.518 365.227 120.518 365.227L114.625 330.776L61.0877 343.276Z" fill="#2F2E41"/>
<path d="M63.021 243.989L66.8683 232.138C67.7244 229.501 69.3282 227.187 71.4741 225.493C73.62 223.798 76.21 222.801 78.9118 222.629L82.3302 222.411C85.3713 222.217 88.3876 223.079 90.8942 224.857C93.4008 226.636 95.2521 229.228 96.1506 232.218C96.9384 234.863 98.4772 237.206 100.57 238.947C102.663 240.689 105.214 241.749 107.897 241.993C117.889 242.867 119.212 264.06 119.212 274.776C119.212 290.935 108.835 306.241 112.208 309.704C115.58 313.166 121.707 329.132 117.211 333.331C116.039 334.426 118.836 344.972 119.212 348.741C119.891 355.566 79.8835 342.806 66.3935 346.718C52.9036 350.63 59.6486 321.324 57.4002 319.016C55.8819 317.457 63.3021 313.181 61.7838 310.569C60.9869 309.198 60.4259 307.697 60.1255 306.13L54.2526 286.009C54.1881 285.674 54.1365 285.346 54.0963 285.007C53.5848 280.701 46.7388 249.256 58.1806 244.984C70.5464 240.367 63.021 243.989 63.021 243.989Z" fill="#6828ED"/>
<path d="M249.184 333.322C246.099 326.823 239.861 322.633 233.913 318.764C212.88 305.088 191.846 291.411 170.813 277.734C163.589 273.037 155.595 268.148 147.107 269.205C136.616 270.512 129.365 280.266 123.371 289.203C117.936 297.307 112.313 305.943 111.688 315.762C111.064 325.581 117.621 336.594 127.203 336.816C118.373 344.621 109.544 352.426 100.714 360.231L138.434 360.842L139.476 356.725C157.571 366.515 175.666 376.306 193.762 386.096C199.254 389.068 205.045 392.117 211.254 392.026C222.435 391.861 230.833 381.921 237.664 372.83C246.307 361.328 255.383 346.381 249.184 333.322Z" fill="white"/>
<path d="M252.655 340.708C252.122 334.928 249.548 329.547 245.418 325.581C241.15 321.321 235.882 318.222 230.884 314.972C218.825 307.131 206.766 299.289 194.707 291.448C188.537 287.436 182.367 283.424 176.198 279.412C170.721 275.851 165.297 272.014 159.228 269.575C153.754 267.376 147.706 266.727 142.115 268.878C137.119 270.8 132.972 274.404 129.466 278.459C125.798 282.879 122.437 287.559 119.406 292.462C115.988 297.755 112.788 303.372 111.186 309.556C109.685 314.833 109.876 320.466 111.731 325.623C113.444 330.11 116.421 334.297 120.644 336.582C121.634 337.117 122.679 337.536 123.761 337.831L99.6528 359.141C99.45 359.359 99.3133 359.633 99.2594 359.93C99.2055 360.226 99.2366 360.532 99.349 360.811C99.4614 361.09 99.6503 361.329 99.8926 361.499C100.135 361.67 100.42 361.764 100.714 361.771L138.434 362.382C138.823 362.368 139.192 362.2 139.462 361.913C139.732 361.625 139.883 361.241 139.883 360.841C139.883 360.442 139.732 360.058 139.462 359.77C139.192 359.483 138.823 359.314 138.434 359.301C127.182 359.118 115.93 358.936 104.678 358.754C112.54 351.804 120.402 344.855 128.264 337.905C128.466 337.687 128.603 337.413 128.657 337.117C128.71 336.82 128.679 336.514 128.567 336.236C128.454 335.957 128.266 335.718 128.024 335.547C127.781 335.377 127.496 335.282 127.203 335.275C117.874 334.937 112.602 324.088 113.205 315.542C113.625 309.587 116.085 304.008 118.992 298.924C121.859 293.96 125.011 289.175 128.43 284.594C131.471 280.489 134.937 276.478 139.244 273.743C141.465 272.303 143.945 271.337 146.537 270.902C149.129 270.467 151.779 270.571 154.331 271.209C160.213 272.644 165.428 276.056 170.476 279.338C176.085 282.984 181.694 286.631 187.303 290.279C198.801 297.756 210.299 305.233 221.797 312.709C227.023 316.107 232.35 319.383 237.454 322.972C241.821 326.044 246.105 329.746 248.232 334.863C252.758 345.747 246.318 357.643 240.368 366.463C237.283 371.105 233.88 375.515 230.185 379.66C226.77 383.432 222.856 387.035 218.153 388.999C212.873 391.204 207.452 390.642 202.223 388.561C199.359 387.342 196.566 385.955 193.857 384.407C190.841 382.775 187.825 381.144 184.809 379.512C172.893 373.065 157.002 352.111 143.829 352.24C140.503 352.272 137.007 357.129 138.718 358.055C151.517 364.98 164.317 371.905 177.116 378.83C183.331 382.193 189.507 385.648 195.776 388.904C201.261 391.752 207.212 394.194 213.477 393.403C224.515 392.009 232.349 382.394 238.725 373.92C242.603 368.979 245.972 363.639 248.776 357.985C251.285 352.654 253.145 346.699 252.655 340.708Z" fill="#CCCCCC"/>
<path d="M191.577 318.812C191.538 318.821 191.499 318.832 191.46 318.841C190.766 315.808 188.94 313.175 186.375 311.509C183.81 309.844 180.711 309.278 177.744 309.934C174.767 310.593 172.163 312.43 170.494 315.046C168.826 317.662 168.228 320.847 168.83 323.913L168.827 323.914L168.859 324.07L173.709 347.171L196.36 342.158L196.346 342.092C196.384 342.084 196.422 342.078 196.46 342.07C197.947 341.741 199.357 341.114 200.608 340.225C201.859 339.337 202.928 338.204 203.753 336.891C204.578 335.579 205.143 334.112 205.416 332.575C205.689 331.039 205.665 329.462 205.344 327.934C205.024 326.407 204.413 324.96 203.548 323.675C202.683 322.39 201.579 321.293 200.301 320.446C199.023 319.599 197.594 319.018 196.097 318.738C194.601 318.458 193.065 318.483 191.577 318.812Z" fill="#6828ED"/>
<path d="M431.662 275.499C431.659 275.541 431.66 275.582 431.658 275.623C428.625 275.494 425.665 276.592 423.413 278.681C421.161 280.77 419.797 283.683 419.615 286.793C419.433 289.915 420.456 292.984 422.461 295.337C424.467 297.69 427.294 299.138 430.332 299.367L430.331 299.371L430.487 299.38L453.462 300.795L454.848 277.045L454.782 277.041C454.785 277.002 454.79 276.963 454.792 276.923C454.883 275.364 454.674 273.801 454.177 272.325C453.68 270.848 452.905 269.487 451.895 268.318C450.886 267.149 449.662 266.196 448.293 265.513C446.925 264.83 445.439 264.43 443.92 264.336C442.402 264.243 440.88 264.457 439.442 264.968C438.004 265.478 436.678 266.274 435.54 267.311C434.401 268.348 433.473 269.604 432.808 271.009C432.142 272.414 431.753 273.94 431.662 275.499Z" fill="#E6E6E6"/>
<path d="M239.564 110.105C239.562 110.146 239.562 110.187 239.56 110.229C236.528 110.1 233.567 111.198 231.315 113.287C229.063 115.376 227.7 118.289 227.518 121.399C227.336 124.521 228.358 127.59 230.364 129.943C232.37 132.296 235.197 133.744 238.234 133.972L238.234 133.976L238.389 133.986L261.364 135.4L262.751 111.651L262.685 111.647C262.687 111.607 262.692 111.569 262.695 111.529C262.786 109.97 262.577 108.407 262.08 106.93C261.583 105.454 260.807 104.092 259.798 102.924C258.788 101.755 257.564 100.802 256.196 100.119C254.828 99.4355 253.342 99.0357 251.823 98.9422C250.304 98.8487 248.782 99.0633 247.344 99.5737C245.906 100.084 244.58 100.88 243.442 101.917C242.304 102.953 241.376 104.21 240.71 105.615C240.045 107.02 239.656 108.546 239.564 110.105Z" fill="#E6E6E6"/>
<path d="M128.905 312.111L81.4353 279.581C79.4281 278.197 78.0315 276.058 77.5468 273.626C77.0621 271.193 77.5282 268.663 78.8445 266.58C79.5254 265.503 80.413 264.579 81.4529 263.866C82.4929 263.152 83.6635 262.663 84.8934 262.429C86.1233 262.195 87.3868 262.221 88.6067 262.505C89.8267 262.789 90.9775 263.324 91.9892 264.08L140.29 299.422L170.521 319.627C171.889 318.678 173.508 318.185 175.159 318.214C176.809 318.243 178.411 318.793 179.746 319.79C181.081 320.786 182.086 322.18 182.622 323.783C183.159 325.386 183.202 327.119 182.746 328.748C182.29 330.377 181.356 331.822 180.072 332.887C178.788 333.952 177.216 334.586 175.569 334.701C173.922 334.817 172.281 334.41 170.868 333.534C169.454 332.658 168.338 331.357 167.67 329.807L128.905 312.111Z" fill="#A0616A"/>
<path d="M88.1972 290.688C87.6164 290.82 87.0095 290.753 86.4697 290.496C85.9299 290.24 85.487 289.808 85.2091 289.268C84.854 288.609 84.3071 288.079 83.6448 287.754C83.5161 287.693 83.3835 287.64 83.248 287.597C82.4256 287.355 81.672 286.913 81.0516 286.308C80.4311 285.704 79.962 284.954 79.6841 284.123C78.8078 281.375 76.4942 278.832 74.22 276.912C71.7313 274.81 69.0944 272.816 67.168 270.164C64.3893 266.338 63.2505 260.738 67.7282 256.978C69.6568 255.409 72.0532 254.571 74.5135 254.604C79.6584 254.604 84.1391 257.453 88.4004 260.22L87.2346 258.278C91.8375 261.384 97.0039 263.504 102.424 264.51C101.574 265.443 102.506 267.091 103.715 267.391C104.958 267.523 106.213 267.319 107.355 266.798C108.858 266.337 110.751 266.207 111.503 268.032C111.671 268.474 111.748 268.946 111.73 269.42C111.712 269.894 111.598 270.359 111.396 270.785C107.752 278.928 102.507 286.209 95.9908 292.171C94.5429 293.494 92.8452 294.819 90.9081 294.745C88.971 294.672 87.1448 292.36 88.1972 290.688Z" fill="#6828ED"/>
<path d="M81.9875 220.106C93.88 220.106 103.521 210.207 103.521 197.996C103.521 185.786 93.88 175.887 81.9875 175.887C70.095 175.887 60.4542 185.786 60.4542 197.996C60.4542 210.207 70.095 220.106 81.9875 220.106Z" fill="#A0616A"/>
<path d="M107.898 188.36C107.397 189.298 106.707 190.116 105.874 190.758C105.041 191.401 104.085 191.854 103.068 192.088C101.645 192.442 100.176 192.563 98.7158 192.448C98.3029 190.454 97.2977 188.642 95.839 187.26C95.9192 188.905 95.5359 190.54 94.735 191.968C91.4727 191.434 88.2716 190.562 85.181 189.363C86.5928 191.292 85.7118 194.126 84.2256 195.99C82.7288 197.865 80.7012 199.26 79.4593 201.309C78.2172 203.358 78.143 206.53 80.1599 207.762C80.9667 208.252 81.9645 208.35 82.7607 208.863C84.4485 209.985 84.5123 212.503 84.0876 214.52L94.7031 225.191C90.4615 226.484 86.1225 227.414 81.731 227.97C80.6439 225.189 78.9347 222.71 76.7417 220.733C77.4198 223.314 77.3904 226.037 76.6567 228.602C64.8841 229.856 51.551 229.856 45.3941 226.902C46.9758 224.547 48.5681 222.193 50.1499 219.828C47.5542 221.192 44.6352 221.774 41.7308 221.506C38.8264 221.238 36.0553 220.131 33.7383 218.313C38.9883 217.908 44.0043 215.917 48.1542 212.591C50.2022 210.912 51.8779 208.804 53.0696 206.407C54.2613 204.011 54.9415 201.381 55.0648 198.693C55.1285 194.737 53.7803 190.835 54.1307 186.9C54.5871 181.853 57.8886 177.363 62.1347 174.801C66.4928 172.359 71.4373 171.24 76.3913 171.575C81.3153 171.909 86.1963 172.73 90.9664 174.027C92.2403 174.322 93.5141 174.627 94.788 174.932C96.8905 175.373 98.9589 175.97 100.977 176.72C103.352 177.554 105.442 179.076 106.996 181.101C107.756 182.122 108.239 183.332 108.398 184.606C108.556 185.881 108.384 187.176 107.898 188.36Z" fill="#2F2E41"/>
<path d="M-1.99999 634.778C-2.00046 634.938 -1.96999 635.098 -1.91032 635.246C-1.85065 635.395 -1.76294 635.53 -1.65228 635.643C-1.54163 635.757 -1.41019 635.847 -1.26552 635.908C-1.12085 635.969 -0.965817 636.001 -0.809328 636H252.609C252.925 636 253.228 635.871 253.451 635.642C253.674 635.413 253.8 635.102 253.8 634.778C253.8 634.453 253.674 634.142 253.451 633.913C253.228 633.684 252.925 633.555 252.609 633.555H-0.809328C-0.965815 633.555 -1.12086 633.586 -1.26552 633.647C-1.41019 633.708 -1.54163 633.799 -1.65228 633.912C-1.76294 634.026 -1.85061 634.161 -1.91029 634.309C-1.96996 634.458 -2.00046 634.617 -1.99999 634.778Z" fill="#CCCCCC"/>
<path d="M469.298 48.6048H187.635C187.37 48.6048 187.115 48.4965 186.927 48.3039C186.74 48.1112 186.634 47.8499 186.634 47.5775C186.634 47.305 186.74 47.0437 186.927 46.8511C187.115 46.6584 187.37 46.5502 187.635 46.5502H468.177C468.557 47.2282 468.927 47.9165 469.298 48.6048Z" fill="#F2F2F2"/>
<path d="M245.237 17.762C249.91 17.762 253.698 13.7859 253.698 8.88102C253.698 3.97617 249.91 0 245.237 0C240.564 0 236.776 3.97617 236.776 8.88102C236.776 13.7859 240.564 17.762 245.237 17.762Z" fill="#F2F2F2"/>
<path d="M274.466 17.762C279.138 17.762 282.927 13.7859 282.927 8.88102C282.927 3.97617 279.138 0 274.466 0C269.793 0 266.005 3.97617 266.005 8.88102C266.005 13.7859 269.793 17.762 274.466 17.762Z" fill="#F2F2F2"/>
<path d="M307.794 15.9003C307.661 15.9004 307.529 15.8732 307.406 15.8201C307.283 15.767 307.172 15.6892 307.079 15.5913L301.37 9.59908C301.187 9.40718 301.084 9.14932 301.084 8.88078C301.084 8.61223 301.187 8.35436 301.37 8.16246L307.079 2.17075C307.265 1.97896 307.517 1.87039 307.781 1.86867C308.045 1.86695 308.298 1.97222 308.487 2.16157C308.676 2.35091 308.784 2.60904 308.788 2.87979C308.792 3.15054 308.692 3.41203 308.509 3.60737L303.485 8.88078L308.509 14.1547C308.647 14.2992 308.74 14.4823 308.777 14.681C308.814 14.8796 308.793 15.085 308.716 15.2713C308.64 15.4577 308.512 15.6168 308.347 15.7287C308.183 15.8406 307.991 15.9003 307.794 15.9003Z" fill="#F2F2F2"/>
<path d="M317.387 15.9004C317.19 15.9004 316.998 15.8407 316.834 15.7288C316.67 15.6169 316.541 15.4578 316.465 15.2714C316.389 15.085 316.368 14.8797 316.404 14.681C316.441 14.4824 316.534 14.2993 316.672 14.1548L321.696 8.88086L316.672 3.60746C316.489 3.41209 316.389 3.15064 316.394 2.87995C316.398 2.60927 316.506 2.35123 316.694 2.16193C316.883 1.97263 317.136 1.86737 317.4 1.86904C317.664 1.87071 317.916 1.97918 318.102 2.17085L323.811 8.16256C323.994 8.35446 324.096 8.61232 324.096 8.88086C324.096 9.14941 323.994 9.40726 323.811 9.59916L318.102 15.5914C318.009 15.6893 317.898 15.7671 317.775 15.8202C317.652 15.8733 317.52 15.9005 317.387 15.9004Z" fill="#F2F2F2"/>
<path d="M425.525 5.6947H340.672C339.964 5.6947 339.284 5.98367 338.783 6.49806C338.283 7.01245 338.001 7.71012 338.001 8.43757C338.001 9.16503 338.283 9.86268 338.783 10.3771C339.284 10.8915 339.964 11.1804 340.672 11.1804H425.525C426.234 11.1804 426.913 10.8915 427.414 10.3771C427.915 9.86268 428.197 9.16503 428.197 8.43757C428.197 7.71012 427.915 7.01245 427.414 6.49806C426.913 5.98367 426.234 5.6947 425.525 5.6947Z" fill="#F2F2F2"/>
<path d="M413.881 220.72C425.36 220.72 434.665 211.166 434.665 199.38C434.665 187.595 425.36 178.041 413.881 178.041C402.403 178.041 393.098 187.595 393.098 199.38C393.098 211.166 402.403 220.72 413.881 220.72Z" fill="#F2F2F2"/>
<path d="M461.695 248.675L368.648 248.336L397.989 240.804L401.643 228.415L429.775 228.251L438.198 240.503L459.47 246.164L461.402 246.679L461.695 248.675Z" fill="#F2F2F2"/>
<path d="M402.07 213.005C406.53 209.426 400.433 193.68 407.798 197.041C407.798 197.041 416.8 191.159 418.608 195.024C420.702 199.5 428.15 197.469 432.724 195.89C432.365 195.032 432.109 194.131 431.963 193.209C432.808 193.893 433.702 194.508 434.639 195.049C435.267 194.705 435.823 194.237 436.276 193.671C436.722 193.147 437.001 192.494 437.076 191.802C437.15 191.11 437.017 190.41 436.693 189.798C435.932 188.597 434.361 188.227 433.436 187.16C433.329 187.01 433.259 186.835 433.233 186.651C433.206 186.468 433.223 186.28 433.282 186.104C433.393 185.675 433.409 185.226 433.331 184.789C433.253 184.352 433.082 183.939 432.831 183.578C432.579 183.217 432.253 182.917 431.876 182.7C431.498 182.483 431.079 182.354 430.648 182.323C430.474 182.328 430.302 182.29 430.146 182.211C429.37 181.723 428.653 181.142 428.011 180.48C429.083 180.53 427.772 173.793 417.143 175.069C414.467 174.968 413.07 177.998 410.435 178.477C404.048 174.73 398.347 180.135 395.572 185.303C392.798 190.47 389.795 207.124 402.07 213.005Z" fill="#F2F2F2"/>
</g>
<defs>
<clipPath id="clip0_13_86">
<rect width="519" height="636" fill="white" transform="translate(-2)"/>
</clipPath>
</defs>
</svg>
