<svg width="41" height="30" viewBox="0 0 41 30" fill="none" xmlns="http://www.w3.org/2000/svg">
<path d="M19.855 9.25L25.6667 14.1217V13.875C25.6667 12.6484 25.0872 11.472 24.0558 10.6046C23.0243 9.73727 21.6254 9.25 20.1667 9.25H19.855ZM11.9717 10.4833L14.8133 12.8729C14.7217 13.1967 14.6667 13.5204 14.6667 13.875C14.6667 15.1016 15.2461 16.278 16.2776 17.1454C17.309 18.0127 18.708 18.5 20.1667 18.5C20.57 18.5 20.9733 18.4537 21.3583 18.3767L24.2 20.7662C22.9717 21.275 21.615 21.5833 20.1667 21.5833C17.7355 21.5833 15.4039 20.7712 13.6849 19.3256C11.9658 17.88 11 15.9194 11 13.875C11 12.6571 11.3667 11.5162 11.9717 10.4833ZM1.83333 1.95792L6.01333 5.47292L6.83833 6.16667C3.81333 8.17083 1.43 10.7917 0 13.875C3.17167 20.6429 11 25.4375 20.1667 25.4375C23.0083 25.4375 25.7217 24.975 28.1967 24.1425L28.985 24.79L34.3383 29.2917L36.6667 27.3337L4.16167 0M20.1667 6.16667C22.5978 6.16667 24.9294 6.97879 26.6485 8.42439C28.3676 9.86998 29.3333 11.8306 29.3333 13.875C29.3333 14.8617 29.095 15.8175 28.6733 16.6808L34.045 21.1979C36.795 19.2708 38.995 16.7425 40.3333 13.875C37.1617 7.10708 29.3333 2.3125 20.1667 2.3125C17.6 2.3125 15.1433 2.69792 12.8333 3.39167L16.8117 6.70625C17.8567 6.36708 18.975 6.16667 20.1667 6.16667Z" fill="#6828ED"/>
</svg>
