<svg width="28" height="24" viewBox="0 0 28 24" fill="none" xmlns="http://www.w3.org/2000/svg">
<path d="M23.8 0H4.2C3.08609 0 2.0178 0.474106 1.23015 1.31802C0.442499 2.16193 0 3.30653 0 4.5V19.5C0 20.6935 0.442499 21.8381 1.23015 22.682C2.0178 23.5259 3.08609 24 4.2 24H23.8C24.9139 24 25.9822 23.5259 26.7698 22.682C27.5575 21.8381 28 20.6935 28 19.5V4.5C28 3.30653 27.5575 2.16193 26.7698 1.31802C25.9822 0.474106 24.9139 0 23.8 0ZM23.8 3L14.7 9.705C14.4872 9.83665 14.2458 9.90596 14 9.90596C13.7542 9.90596 13.5128 9.83665 13.3 9.705L4.2 3H23.8Z" fill="#6828ED"/>
</svg>
