<svg width="28" height="24" viewBox="0 0 28 24" fill="none" xmlns="http://www.w3.org/2000/svg">
<path d="M10.5 10.8H0V1.2C0 0.88174 0.184375 0.576515 0.512563 0.351472C0.840752 0.126428 1.28587 0 1.75 0H26.25C26.7141 0 27.1593 0.126428 27.4874 0.351472C27.8156 0.576515 28 0.88174 28 1.2V22.8C28 23.1183 27.8156 23.4235 27.4874 23.6485C27.1593 23.8736 26.7141 24 26.25 24H1.75C1.28587 24 0.840752 23.8736 0.512563 23.6485C0.184375 23.4235 0 23.1183 0 22.8V13.2H10.5V16.8L19.25 12L10.5 7.2V10.8Z" fill="#6828ED"/>
</svg>
