<svg width="28" height="24" viewBox="0 0 28 24" fill="none" xmlns="http://www.w3.org/2000/svg">
<path d="M23.3333 8H26.4444C26.857 8 27.2527 8.12041 27.5444 8.33474C27.8361 8.54906 28 8.83975 28 9.14286V22.8571C28 23.1602 27.8361 23.4509 27.5444 23.6653C27.2527 23.8796 26.857 24 26.4444 24H1.55556C1.143 24 0.747335 23.8796 0.455612 23.6653C0.163888 23.4509 0 23.1602 0 22.8571V9.14286C0 8.83975 0.163888 8.54906 0.455612 8.33474C0.747335 8.12041 1.143 8 1.55556 8H4.66667V6.85714C4.66667 5.03852 5.65 3.29437 7.40034 2.00841C9.15068 0.722447 11.5246 0 14 0C16.4754 0 18.8493 0.722447 20.5997 2.00841C22.35 3.29437 23.3333 5.03852 23.3333 6.85714V8ZM20.2222 8V6.85714C20.2222 5.64472 19.5667 4.48196 18.3998 3.62465C17.2329 2.76735 15.6502 2.28571 14 2.28571C12.3498 2.28571 10.7671 2.76735 9.60022 3.62465C8.43333 4.48196 7.77778 5.64472 7.77778 6.85714V8H20.2222ZM12.4444 14.8571V17.1429H15.5556V14.8571H12.4444ZM6.22222 14.8571V17.1429H9.33333V14.8571H6.22222ZM18.6667 14.8571V17.1429H21.7778V14.8571H18.6667Z" fill="#6828ED"/>
</svg>
