<svg width="40" height="41" viewBox="0 0 40 41" fill="none" xmlns="http://www.w3.org/2000/svg">
<path d="M20.1288 0.118164H20.3513C22.4064 0.128841 32.8196 0.235613 35.6272 1.31044C36.476 1.63847 37.2495 2.27787 37.8703 3.16473C38.4911 4.05159 38.9375 5.15485 39.165 6.36427C39.4175 7.7167 39.595 9.5069 39.715 11.354L39.74 11.7242L39.795 12.6495L39.815 13.0197C39.9775 16.2726 39.9975 19.3192 40 19.9847V20.2516C39.9975 20.9421 39.975 24.195 39.795 27.5832L39.775 27.9569L39.7525 28.3271C39.6275 30.3628 39.4425 32.3844 39.165 33.8721C38.9382 35.082 38.492 36.1857 37.8711 37.0728C37.2502 37.9598 36.4764 38.5988 35.6272 38.9259C32.727 40.0363 21.7039 40.1146 20.1763 40.1182H19.8212C19.0487 40.1182 15.8535 40.0968 12.5033 39.9331L12.0783 39.9117L11.8607 39.8975L11.4332 39.8726L11.0057 39.8477C8.23051 39.6733 5.58785 39.3921 4.37027 38.9223C3.52144 38.5956 2.74783 37.9571 2.12694 37.0707C1.50605 36.1844 1.05968 35.0813 0.832552 33.8721C0.555035 32.3879 0.370023 30.3628 0.245015 28.3271L0.225014 27.9534L0.205013 27.5832C0.0816241 25.1716 0.0132505 22.755 0 20.337L0 19.8993C0.00500031 19.1341 0.0250016 16.4897 0.16001 13.5713L0.177511 13.2047L0.185012 13.0197L0.205013 12.6495L0.260016 11.7242L0.285018 11.354C0.405025 9.5069 0.582536 7.71315 0.835052 6.36427C1.0618 5.15437 1.508 4.05058 2.12892 3.16357C2.74983 2.27655 3.52364 1.63749 4.37277 1.31044C5.59035 0.847767 8.23302 0.563043 11.0082 0.385091L11.4332 0.360178L11.8632 0.338825L12.0783 0.328148L12.5058 0.303234C14.8852 0.194237 17.2656 0.133727 19.6462 0.121723H20.1288V0.118164ZM16.001 11.5427V28.6901L26.3942 20.1199L16.001 11.5427Z" fill="#05E279"/>
</svg>
