<svg width="41" height="40" viewBox="0 0 41 40" fill="none" xmlns="http://www.w3.org/2000/svg">
<path d="M20.96 13.3305C17.2875 13.3305 14.2906 16.3275 14.2906 20C14.2906 23.6725 17.2875 26.6695 20.96 26.6695C24.6324 26.6695 27.6293 23.6725 27.6293 20C27.6293 16.3275 24.6324 13.3305 20.96 13.3305ZM40.9631 20C40.9631 17.2381 40.9881 14.5013 40.833 11.7444C40.6779 8.54226 39.9474 5.70034 37.6059 3.35876C35.2594 1.01217 32.4225 0.286681 29.2204 0.131576C26.4586 -0.0235287 23.7218 0.00148823 20.965 0.00148823C18.2031 0.00148823 15.4663 -0.0235287 12.7095 0.131576C9.50743 0.286681 6.66557 1.01717 4.32403 3.35876C1.97748 5.70534 1.25201 8.54226 1.09691 11.7444C0.941804 14.5063 0.96682 17.2431 0.96682 20C0.96682 22.7569 0.941804 25.4987 1.09691 28.2556C1.25201 31.4577 1.98249 34.2997 4.32403 36.6412C6.67057 38.9878 9.50743 39.7133 12.7095 39.8684C15.4714 40.0235 18.2081 39.9985 20.965 39.9985C23.7268 39.9985 26.4636 40.0235 29.2204 39.8684C32.4225 39.7133 35.2644 38.9828 37.6059 36.6412C39.9524 34.2947 40.6779 31.4577 40.833 28.2556C40.9931 25.4987 40.9631 22.7619 40.9631 20ZM20.96 30.2619C15.2812 30.2619 10.6982 25.6788 10.6982 20C10.6982 14.3212 15.2812 9.73807 20.96 9.73807C26.6387 9.73807 31.2217 14.3212 31.2217 20C31.2217 25.6788 26.6387 30.2619 20.96 30.2619ZM31.642 11.7144C30.3161 11.7144 29.2454 10.6437 29.2454 9.31778C29.2454 7.99189 30.3161 6.92116 31.642 6.92116C32.9678 6.92116 34.0386 7.99189 34.0386 9.31778C34.0389 9.63262 33.9772 9.94445 33.8569 10.2354C33.7366 10.5263 33.5601 10.7907 33.3375 11.0133C33.1149 11.236 32.8505 11.4125 32.5596 11.5328C32.2686 11.6531 31.9568 11.7148 31.642 11.7144Z" fill="#05E279"/>
</svg>
