<svg width="41" height="40" viewBox="0 0 41 40" fill="none" xmlns="http://www.w3.org/2000/svg">
<path d="M29.137 0H20.9749C20.4447 0 19.9363 0.210714 19.5614 0.585786C19.1865 0.960859 18.9759 1.46957 18.9759 2V25C18.9761 25.4983 18.8523 25.9888 18.6156 26.4273C18.3789 26.8657 18.0367 27.2382 17.62 27.5112C17.2034 27.7842 16.7253 27.9491 16.229 27.9909C15.7327 28.0327 15.2338 27.9502 14.7773 27.7508C14.3209 27.5514 13.9213 27.2413 13.6146 26.8487C13.3079 26.456 13.1038 25.9932 13.0207 25.5018C12.9377 25.0105 12.9782 24.5062 13.1388 24.0345C13.2993 23.5628 13.5748 23.1385 13.9403 22.8L14.1802 22.6C14.4281 22.4135 14.6292 22.1718 14.7676 21.8941C14.9061 21.6164 14.978 21.3103 14.9778 21V12.348C14.978 12.0461 14.91 11.7481 14.7787 11.4762C14.6474 11.2044 14.4563 10.9659 14.2197 10.7784C13.9832 10.591 13.7073 10.4596 13.4127 10.3941C13.1182 10.3285 12.8126 10.3306 12.519 10.4C8.93883 11.2442 5.79378 13.3756 3.68216 16.3887C1.57055 19.4018 0.639714 23.0864 1.06676 26.7415C1.4938 30.3966 3.24893 33.7671 5.99821 36.2118C8.7475 38.6564 12.2991 40.0047 15.9773 40L16.4631 39.99C20.3529 39.8638 24.0412 38.2293 26.7485 35.432C29.4557 32.6347 30.9696 28.8937 30.9701 25V19.6L31.5918 19.906C33.8348 20.966 36.2556 21.642 38.7684 21.892C39.0464 21.9197 39.3271 21.8887 39.5924 21.8012C39.8577 21.7137 40.1017 21.5715 40.3087 21.3838C40.5157 21.1961 40.6811 20.9671 40.7942 20.7115C40.9073 20.4559 40.9656 20.1795 40.9653 19.9V11.834C40.9653 11.3612 40.7978 10.9036 40.4926 10.5426C40.1874 10.1816 39.7642 9.94049 39.2981 9.862C37.2525 9.51473 35.3653 8.53975 33.898 7.07206C32.4306 5.60436 31.4557 3.71655 31.1081 1.67C31.03 1.20336 30.7892 0.779512 30.4283 0.473756C30.0674 0.167999 29.6099 0.000138896 29.137 0Z" fill="#05E279"/>
</svg>
