<svg width="876" height="448" viewBox="0 0 876 448" fill="none" xmlns="http://www.w3.org/2000/svg">
<g clip-path="url(#clip0_4_39)">
<path d="M288.484 448C262.052 448 235.658 447.517 209.305 446.552C171.649 445.172 132.71 443.746 96.5188 423.268C71.2012 408.944 48.7785 385.962 31.6755 356.806C20.244 337.044 11.8621 315.604 6.82389 293.241C-2.57426 252.525 -2.25414 210.103 7.75731 169.54C11.2657 155.632 16.1023 142.109 22.1976 129.165C48.5907 73.4064 96.7298 35.9773 154.272 26.4755C154.747 26.4126 155.228 26.4021 155.705 26.4443C155.964 26.4584 156.222 26.4735 156.485 26.4623L156.823 26.3525C157.691 26.0448 158.583 25.8114 159.489 25.6547C248.234 12.1764 342.051 39.4478 430.789 104.519C499.402 154.838 590.333 181.934 708.779 187.356L710.461 187.445C743.434 189.378 775.328 203.246 802.7 227.553C829.716 251.544 850.001 283.552 861.361 320.119C862.758 324.577 864.038 329.217 865.167 333.911C866.217 338.273 866.143 342.838 864.951 347.161C863.76 351.485 861.491 355.421 858.367 358.586V358.594L858.072 358.904C857.362 359.624 856.615 360.315 855.851 360.958L854.953 361.714C847.383 368.075 841.405 373.1 834.25 377.003C829.477 379.588 824.402 381.543 819.146 382.82C790.282 389.999 760.97 396.655 732.024 402.605C675.811 414.168 618.116 423.707 560.543 430.955C470.284 442.309 379.427 448.001 288.484 448ZM155.032 28.4191C154.855 28.4174 154.679 28.4296 154.504 28.4557C97.4996 37.8687 49.8162 74.9303 23.6848 130.137C17.6496 142.953 12.8609 156.342 9.38738 170.112C-0.532844 210.315 -0.848974 252.361 8.46558 292.715C13.4544 314.864 21.7552 336.098 33.0762 355.671C50.0118 384.542 72.2052 407.293 97.2574 421.466C133.124 441.761 171.879 443.181 209.358 444.553C326.579 448.826 443.947 443.615 560.361 428.968C617.897 421.724 675.554 412.192 731.731 400.635C760.657 394.691 789.948 388.04 818.793 380.865C823.923 379.619 828.876 377.712 833.533 375.189C840.544 371.366 846.466 366.388 853.963 360.088L854.861 359.333C855.517 358.78 856.162 358.188 856.779 357.574L856.956 357.384C863.117 351.049 865.513 342.691 863.529 334.454V334.453C862.413 329.81 861.146 325.219 859.764 320.807C836.557 246.108 776.524 193.318 710.379 189.442L708.707 189.352C654.602 186.875 607.257 180.014 563.971 168.375C512.297 154.482 467.186 133.567 429.888 106.214C341.488 41.3924 248.063 14.2225 159.705 27.6369C158.88 27.7821 158.068 27.9969 157.277 28.279L156.667 28.4532C156.321 28.4691 155.973 28.4648 155.627 28.4405C155.423 28.4298 155.225 28.4191 155.032 28.4191Z" fill="#F0F0F0"/>
<path d="M273.626 145.964C271.179 143.569 268.677 130.212 265.553 128.856C267.888 134.121 266.192 135.515 266.18 141.294C266.209 144.575 265.834 147.847 265.062 151.033H212.14V108.897C212.14 105.111 212.871 101.362 214.291 97.8647C215.711 94.3669 217.793 91.1887 220.417 88.5116C223.041 85.8346 226.156 83.711 229.585 82.2622C233.013 80.8134 236.688 80.0678 240.399 80.068C241.815 80.0962 243.223 80.3063 244.588 80.6935C249.136 81.9464 253.282 84.3976 256.609 87.8012C259.936 91.2048 262.328 95.4411 263.543 100.085C267.578 115.129 273.994 140.171 273.626 145.964Z" fill="#2F2E41"/>
<path d="M215.245 197.798L215.272 164.956L196.348 166.681L203.027 187.395L199.901 239.458C198.385 239.805 197.001 240.595 195.917 241.731C194.833 242.866 194.097 244.299 193.798 245.855C193.499 247.41 193.649 249.02 194.232 250.49C194.814 251.959 195.803 253.224 197.078 254.13C198.353 255.036 199.859 255.544 201.412 255.592C202.965 255.64 204.498 255.226 205.824 254.4C207.15 253.575 208.212 252.373 208.881 250.943C209.549 249.512 209.795 247.913 209.589 246.343L215.245 197.798Z" fill="#FFB6B6"/>
<path d="M252.486 432.488L260.131 432.487L263.768 402.404H252.484L252.486 432.488Z" fill="#FFB6B6"/>
<path d="M249.897 428.64L261.982 427.904V433.186L273.472 441.282C274.04 441.682 274.467 442.256 274.692 442.921C274.917 443.586 274.927 444.307 274.722 444.979C274.517 445.651 274.107 446.238 273.551 446.655C272.995 447.072 272.324 447.297 271.634 447.297H257.246L254.766 442.072L253.798 447.297H248.373L249.897 428.64Z" fill="#2F2E41"/>
<path d="M208.281 432.488L215.927 432.487L219.563 402.404H208.28L208.281 432.488Z" fill="#FFB6B6"/>
<path d="M205.692 428.64L217.778 427.904V433.186L229.267 441.282C229.835 441.682 230.262 442.256 230.487 442.921C230.712 443.586 230.723 444.307 230.518 444.979C230.312 445.651 229.902 446.238 229.346 446.655C228.791 447.072 228.119 447.297 227.43 447.297H213.042L210.562 442.072L209.593 447.297H204.168L205.692 428.64Z" fill="#2F2E41"/>
<path d="M245.678 129.49L229.841 129.807L218.661 141.845L209.699 143.186C205.644 143.793 201.917 145.801 199.14 148.874C196.362 151.948 194.703 155.901 194.44 160.073L195.992 168.774H205.308L210.698 201.056C208.602 206.504 208.46 210.804 212.761 212.493L226.114 238.154L265.552 220.097C267.553 216.589 268.193 213.065 266.149 209.639L268.968 160.22H278.448C278.448 150.977 275.384 143.185 266.38 142.157C262.805 141.762 259.212 141.552 255.615 141.528L245.678 129.49Z" fill="#E6E6E6"/>
<path d="M265.552 220.097C265.552 220.097 227.046 227.066 212.761 212.493C212.761 212.493 211.311 215.005 209.126 219.17C208.497 220.368 207.283 221.18 206.55 222.631C205.884 223.95 204.171 225.571 203.445 227.067C202.861 228.27 203.798 229.842 203.19 231.142C195.875 246.796 187.328 268.877 189.16 283.458C190.342 292.861 192.783 314.74 195.353 338.24C195.554 340.076 193.927 342.434 194.129 344.285C194.319 346.03 196.338 347.267 196.528 349.016C196.655 350.177 195.245 351.362 195.371 352.522C195.509 353.794 197.184 355.042 197.321 356.31C200.842 388.757 204.066 419.051 204.066 419.051H222.077L225.476 349.863L222.698 324.643L229.22 273.637L238.225 322.108L239.384 349.388L248.901 420.318H265.552V351.654L266.795 348.087L265.552 343.512L266.795 338.582L265.552 333.214V220.097Z" fill="#2F2E41"/>
<path d="M250.539 120.12C248.086 123.445 244.596 125.818 240.644 126.849C236.692 127.88 232.514 127.507 228.797 125.792C225.081 124.076 222.048 121.121 220.198 117.412C218.348 113.703 217.791 109.462 218.619 105.387C219.447 101.312 221.611 97.6469 224.753 94.9942C227.896 92.3414 231.831 90.8598 235.91 90.7932C239.988 90.7266 243.968 92.079 247.192 94.6278C250.417 97.1766 252.694 100.77 253.65 104.815C253.701 105.035 253.745 105.253 253.787 105.48C254.292 108.016 254.263 110.632 253.703 113.156C253.143 115.679 252.065 118.053 250.539 120.12Z" fill="#FFB6B6"/>
<path d="M246.796 109.67C246.415 107.72 245.452 105.939 244.039 104.57C244.178 106.438 243.924 108.316 243.293 110.076C238.572 110.502 233.829 109.544 229.623 107.313C226.456 105.121 222.425 105.311 217.73 107.313C217.73 104.983 218.179 102.676 219.053 100.524C219.927 98.3711 221.208 96.4153 222.823 94.7678C224.438 93.1203 226.355 91.8135 228.465 90.922C230.575 90.0306 232.836 89.5718 235.12 89.5721H238.225C242.837 89.573 247.26 91.4424 250.521 94.7694C253.782 98.0963 255.615 102.608 255.615 107.313C252.749 108.362 249.798 109.151 246.796 109.67Z" fill="#2F2E41"/>
<path d="M110.938 335.788C138.53 335.788 160.897 312.969 160.897 284.821C160.897 256.672 138.53 233.853 110.938 233.853C83.3463 233.853 60.9787 256.672 60.9787 284.821C60.9787 312.969 83.3463 335.788 110.938 335.788Z" fill="#F0F0F0"/>
<path d="M429.306 101.936C456.897 101.936 479.265 79.1167 479.265 50.9679C479.265 22.8191 456.897 0 429.306 0C401.714 0 379.346 22.8191 379.346 50.9679C379.346 79.1167 401.714 101.936 429.306 101.936Z" fill="#F0F0F0"/>
<path d="M826.041 343.783C853.633 343.783 876 320.964 876 292.816C876 264.667 853.633 241.848 826.041 241.848C798.449 241.848 776.082 264.667 776.082 292.816C776.082 320.964 798.449 343.783 826.041 343.783Z" fill="#F0F0F0"/>
<path d="M519.428 56.5262V172.099C519.428 174.5 518.5 176.804 516.845 178.51C515.19 180.217 512.942 181.188 510.589 181.213C510.556 181.216 510.524 181.218 510.491 181.217H497.306C486.756 181.217 476.638 176.942 469.179 169.331C461.719 161.721 457.528 151.399 457.528 140.636V56.5261C457.528 54.108 458.47 51.7889 460.146 50.079C461.822 48.3691 464.095 47.4085 466.465 47.4085H471.808C469.333 54.7745 502.925 57.8757 504.769 47.4085H510.491C512.861 47.4085 515.135 48.3691 516.811 50.079C518.487 51.7889 519.428 54.108 519.428 56.5262Z" fill="#6828ED"/>
<path d="M480.3 38.7663C480.301 38.4495 480.424 38.1458 480.644 37.9218C480.863 37.6978 481.161 37.5718 481.472 37.5714H489.436C489.746 37.5724 490.043 37.6986 490.262 37.9226C490.481 38.1466 490.604 38.45 490.604 38.7663C490.604 39.0826 490.481 39.3861 490.262 39.61C490.043 39.834 489.746 39.9603 489.436 39.9612H481.472C481.161 39.9609 480.863 39.8349 480.644 39.6109C480.424 39.3869 480.301 39.0831 480.3 38.7663Z" fill="#3F3D56"/>
<path d="M513.227 195.877H462.861C458.953 195.872 455.206 194.287 452.443 191.468C449.68 188.649 448.126 184.827 448.121 180.84V100.05C447.845 99.8472 447.619 99.5802 447.464 99.271C447.309 98.9619 447.228 98.6195 447.229 98.2721V90.1468C447.228 89.7996 447.309 89.4572 447.464 89.1481C447.619 88.839 447.845 88.5722 448.121 88.3696V86.1889C447.845 85.9864 447.619 85.7195 447.464 85.4104C447.309 85.1013 447.228 84.759 447.229 84.4117V76.2859C447.228 75.9387 447.309 75.5963 447.464 75.2872C447.619 74.9781 447.845 74.7113 448.121 74.5087V70.5674C447.78 70.3803 447.495 70.102 447.296 69.7623C447.098 69.4226 446.993 69.0343 446.994 68.6389V60.5137C446.993 60.1181 447.097 59.7298 447.296 59.39C447.494 59.0503 447.78 58.7719 448.121 58.5847V47.7848C448.126 43.7983 449.68 39.9763 452.443 37.1574C455.207 34.3385 458.953 32.7529 462.861 32.7485H513.227C517.135 32.753 520.881 34.3386 523.644 37.1575C526.407 39.9764 527.962 43.7984 527.966 47.7849V71.3262C528.232 71.4956 528.45 71.731 528.602 72.0104C528.754 72.2898 528.834 72.6039 528.834 72.9233V88.4165C528.834 88.736 528.754 89.0502 528.602 89.3296C528.45 89.6091 528.232 89.8446 527.966 90.0141V180.84C527.962 184.827 526.407 188.649 523.644 191.468C520.881 194.286 517.135 195.872 513.227 195.877ZM462.861 34.7472C459.472 34.7511 456.224 36.1259 453.828 38.5701C451.432 41.0143 450.084 44.3282 450.08 47.7849V60.2848L449.138 60.3219C449.089 60.3237 449.043 60.3446 449.008 60.3803C448.974 60.4159 448.954 60.4637 448.953 60.5137V68.6388C448.954 68.6888 448.974 68.7365 449.009 68.7721C449.043 68.8078 449.089 68.8287 449.138 68.8307L450.08 68.8672V75.9121L449.335 76.0995C449.294 76.1096 449.257 76.1334 449.23 76.1672C449.204 76.2009 449.189 76.2426 449.188 76.2859V84.4117C449.189 84.455 449.204 84.4967 449.23 84.5304C449.257 84.5641 449.294 84.5879 449.335 84.5981L450.08 84.7854V89.773L449.335 89.9604C449.294 89.9705 449.257 89.9943 449.23 90.0281C449.204 90.0618 449.189 90.1035 449.188 90.1468V98.2721C449.189 98.3154 449.204 98.3573 449.23 98.3911C449.257 98.4249 449.294 98.4487 449.335 98.4589L450.08 98.6463V180.84C450.084 184.297 451.432 187.611 453.828 190.055C456.224 192.499 459.472 193.874 462.861 193.878H513.227C516.615 193.874 519.864 192.499 522.26 190.055C524.655 187.611 526.003 184.297 526.007 180.84V88.3028H526.875V73.0375H526.007V47.7848C526.003 44.3282 524.655 41.0143 522.26 38.5702C519.864 36.126 516.615 34.7511 513.227 34.7472L462.861 34.7472Z" fill="#3F3D56"/>
<path d="M493.887 39.9612C494.534 39.9612 495.058 39.4263 495.058 38.7663C495.058 38.1064 494.534 37.5714 493.887 37.5714C493.24 37.5714 492.716 38.1064 492.716 38.7663C492.716 39.4263 493.24 39.9612 493.887 39.9612Z" fill="#3F3D56"/>
<path d="M239.099 270.233H108.042C106.181 270.228 104.398 269.471 103.081 268.129C101.765 266.786 101.024 264.967 101.019 263.068V197.92C101.023 196.021 101.765 194.202 103.081 192.859C104.397 191.517 106.18 190.76 108.041 190.755H239.098C240.959 190.76 242.743 191.516 244.059 192.859C245.375 194.201 246.117 196.021 246.122 197.919V263.067C246.117 264.966 245.376 266.785 244.06 268.128C242.744 269.471 240.96 270.227 239.099 270.233Z" fill="white"/>
<path d="M239.099 270.233H108.042C106.181 270.228 104.398 269.471 103.081 268.129C101.765 266.786 101.024 264.967 101.019 263.068V197.92C101.023 196.021 101.765 194.202 103.081 192.859C104.397 191.517 106.18 190.76 108.041 190.755H239.098C240.959 190.76 242.743 191.516 244.059 192.859C245.375 194.201 246.117 196.021 246.122 197.919V263.067C246.117 264.966 245.376 266.785 244.06 268.128C242.744 269.471 240.96 270.227 239.099 270.233ZM108.042 192.754C106.7 192.758 105.414 193.303 104.465 194.272C103.516 195.24 102.982 196.552 102.978 197.921V263.067C102.982 264.436 103.517 265.748 104.466 266.717C105.415 267.685 106.701 268.23 108.043 268.234H239.097C240.44 268.23 241.726 267.684 242.675 266.716C243.624 265.748 244.159 264.436 244.163 263.066V197.92C244.159 196.551 243.624 195.239 242.675 194.271C241.725 193.303 240.439 192.757 239.097 192.754L108.042 192.754Z" fill="#3F3D56"/>
<path d="M180.595 260.605C154.747 260.605 127.796 260.353 117.74 260.189C116.417 260.162 115.157 259.607 114.229 258.645C113.301 257.682 112.779 256.387 112.774 255.037V201.11C112.774 200.626 112.962 200.163 113.297 199.821C113.632 199.478 114.086 199.285 114.56 199.283H232.577C233.05 199.284 233.505 199.476 233.84 199.817C234.176 200.159 234.365 200.622 234.367 201.105V237.694C234.345 243.667 232.029 249.392 227.916 253.643C223.804 257.894 218.222 260.331 212.368 260.432C202.996 260.556 191.898 260.605 180.595 260.605Z" fill="#6828ED"/>
<path d="M225.571 234.332H118.934C118.041 234.33 117.17 234.047 116.44 233.522C115.711 232.997 115.157 232.256 114.854 231.399L102.785 196.854C102.552 196.188 102.48 195.474 102.573 194.774C102.667 194.073 102.924 193.405 103.323 192.827C103.722 192.249 104.251 191.776 104.866 191.45C105.481 191.123 106.164 190.952 106.857 190.951L240.153 190.762C240.787 190.761 241.413 190.902 241.987 191.175C242.561 191.448 243.07 191.846 243.477 192.341C243.884 192.837 244.18 193.417 244.344 194.042C244.507 194.666 244.534 195.32 244.423 195.956L244.526 196.001L244.144 196.912L244.14 196.921L229.549 231.654C229.216 232.45 228.662 233.127 227.955 233.604C227.248 234.08 226.419 234.333 225.571 234.332ZM240.159 192.76L106.861 192.95C106.482 192.95 106.107 193.044 105.771 193.223C105.434 193.402 105.144 193.66 104.925 193.977C104.706 194.294 104.566 194.66 104.514 195.043C104.463 195.427 104.503 195.818 104.63 196.183L116.699 230.726C116.865 231.196 117.169 231.602 117.569 231.89C117.969 232.177 118.446 232.332 118.935 232.334H225.571C226.035 232.334 226.489 232.195 226.876 231.935C227.263 231.674 227.566 231.303 227.748 230.868L242.339 196.133C242.494 195.765 242.557 195.364 242.522 194.965C242.487 194.566 242.355 194.182 242.139 193.848C241.923 193.514 241.629 193.239 241.284 193.05C240.938 192.86 240.552 192.76 240.159 192.76Z" fill="#6828ED"/>
<path d="M173.371 241.852C177.983 241.852 181.721 238.038 181.721 233.333C181.721 228.628 177.983 224.815 173.371 224.815C168.76 224.815 165.021 228.628 165.021 233.333C165.021 238.038 168.76 241.852 173.371 241.852Z" fill="white"/>
<path d="M488.8 167.898C493.412 167.898 497.15 164.085 497.15 159.38C497.15 154.675 493.412 150.861 488.8 150.861C484.189 150.861 480.45 154.675 480.45 159.38C480.45 164.085 484.189 167.898 488.8 167.898Z" fill="white"/>
<path d="M804.617 282.942L782.312 260.476C781.226 259.374 779.938 258.501 778.52 257.907C777.103 257.314 775.586 257.012 774.054 257.018H773.975C772.432 257.023 770.905 257.339 769.482 257.95C768.06 258.561 766.77 259.453 765.688 260.576C760.701 265.725 757.864 272.646 757.774 279.885C757.685 287.123 760.349 294.115 765.208 299.391C765.443 299.651 765.688 299.901 765.933 300.151C767.289 301.527 768.787 302.75 770.4 303.799C774.809 306.705 779.952 308.243 785.202 308.226H785.368C788.971 308.213 792.537 307.472 795.858 306.045C799.178 304.618 802.189 302.533 804.715 299.911C806.904 297.646 808.123 294.587 808.104 291.406C808.086 288.225 806.832 285.181 804.617 282.942ZM803.324 298.502C799.183 302.758 793.73 305.428 787.884 306.061C782.039 306.695 776.158 305.253 771.233 301.98C769.824 301.029 768.508 299.941 767.304 298.732C762.498 293.889 759.774 287.297 759.732 280.406C759.69 273.515 762.333 266.889 767.079 261.985C767.981 261.047 769.057 260.302 770.245 259.792C771.432 259.282 772.707 259.019 773.995 259.017H774.054C775.329 259.012 776.593 259.264 777.773 259.758C778.953 260.252 780.026 260.978 780.93 261.895L803.236 284.371C805.082 286.234 806.129 288.768 806.145 291.418C806.162 294.067 805.147 296.615 803.324 298.502Z" fill="#3F3D56"/>
<path d="M731.432 209.208L709.126 186.732C706.931 184.51 703.961 183.267 700.868 183.275H700.8C699.254 183.281 697.725 183.599 696.301 184.212C694.877 184.824 693.586 185.718 692.503 186.842C688.379 191.114 685.706 196.621 684.874 202.556C684.042 208.491 685.095 214.542 687.879 219.821L687.889 219.831C689.037 221.991 690.464 223.984 692.13 225.758C692.316 225.978 692.532 226.197 692.747 226.417C697.87 231.604 704.799 234.508 712.016 234.492H712.192C715.796 234.477 719.362 233.733 722.682 232.304C726.003 230.876 729.013 228.79 731.539 226.167C732.624 225.047 733.482 223.719 734.063 222.26C734.645 220.801 734.939 219.24 734.929 217.665C734.919 216.09 734.605 214.533 734.005 213.082C733.405 211.631 732.53 210.314 731.432 209.208ZM730.139 224.768C727.794 227.202 725 229.137 721.918 230.463C718.836 231.789 715.527 232.479 712.183 232.494H712.016C706.993 232.492 702.083 230.974 697.903 228.133C693.723 225.291 690.459 221.252 688.524 216.524C686.588 211.795 686.066 206.588 687.023 201.558C687.98 196.527 690.374 191.898 693.903 188.251C695.73 186.368 698.214 185.3 700.811 185.283C703.408 185.267 705.905 186.302 707.755 188.161L730.06 210.627C731.906 212.494 732.95 215.03 732.965 217.681C732.979 220.332 731.963 222.881 730.139 224.768Z" fill="#3F3D56"/>
<path d="M806.043 290.005L781.452 265.227C779.839 263.606 777.662 262.703 775.398 262.718C773.134 262.732 770.969 263.662 769.376 265.303C767.383 267.357 765.807 269.791 764.738 272.466C763.668 275.141 763.126 278.006 763.142 280.895C763.158 283.784 763.732 286.642 764.831 289.305C765.93 291.967 767.533 294.383 769.548 296.413C771.563 298.444 773.951 300.049 776.574 301.137C779.198 302.226 782.006 302.776 784.838 302.756C787.67 302.737 790.471 302.148 793.079 301.023C795.688 299.899 798.054 298.261 800.042 296.203L806.043 290.005Z" fill="#6828ED"/>
<path d="M732.862 216.267L708.271 191.489C706.658 189.868 704.481 188.966 702.217 188.98C699.953 188.994 697.788 189.924 696.195 191.566C694.203 193.619 692.626 196.053 691.557 198.728C690.487 201.404 689.945 204.268 689.961 207.157C689.977 210.046 690.551 212.904 691.65 215.567C692.749 218.23 694.352 220.645 696.367 222.676C698.382 224.706 700.77 226.311 703.393 227.4C706.017 228.488 708.825 229.038 711.657 229.019C714.489 228.999 717.29 228.41 719.898 227.286C722.507 226.161 724.873 224.523 726.861 222.465L732.862 216.267Z" fill="#6828ED"/>
<path d="M779.02 305.438L778.433 307.017C775.67 305.947 772.993 304.875 770.4 303.799C724.477 284.681 702.553 262.305 687.889 219.831L687.879 219.821C687.183 217.823 686.508 215.777 685.851 213.685L687.399 213.176C687.916 215.188 688.673 217.127 689.652 218.952C690.455 221.281 691.281 223.549 692.13 225.758C705.913 261.605 726.24 282.092 765.208 299.391C767.167 300.261 769.175 301.124 771.233 301.98C773.621 303.568 776.253 304.736 779.02 305.438Z" fill="#3F3D56"/>
<path d="M708.718 232.673L707.341 234.095L758.219 285.361L759.596 283.939L708.718 232.673Z" fill="#3F3D56"/>
<path d="M277.974 190.195L278 157.353L259.077 159.078L265.755 179.791L241.513 217.282C239.997 217.629 238.613 218.418 237.529 219.554C236.446 220.69 235.709 222.123 235.41 223.678C235.111 225.233 235.261 226.844 235.844 228.313C236.426 229.783 237.415 231.047 238.69 231.953C239.965 232.859 241.471 233.367 243.024 233.415C244.577 233.463 246.11 233.049 247.436 232.224C248.762 231.398 249.824 230.197 250.493 228.766C251.161 227.335 251.407 225.737 251.201 224.166L277.974 190.195Z" fill="#FFB6B6"/>
</g>
<defs>
<clipPath id="clip0_4_39">
<rect width="876" height="448" fill="white"/>
</clipPath>
</defs>
</svg>
