<svg xmlns="http://www.w3.org/2000/svg" width="96" height="96" viewBox="0 0 96 96" fill="none">
<g clip-path="url(#clip0_33_73)">
<path d="M73.4773 31.4091V62.25C73.4773 68.1768 68.6768 72.9773 62.75 72.9773C56.8232 72.9773 52.0227 68.1768 52.0227 62.25V28.7273C52.0227 25.0264 55.0264 22.0227 58.7273 22.0227C62.4282 22.0227 65.4318 25.0264 65.4318 28.7273V56.8864C65.4318 58.3614 64.225 59.5682 62.75 59.5682C61.275 59.5682 60.0682 58.3614 60.0682 56.8864V31.4091H56.0455V56.8864C56.0455 60.5873 59.0491 63.5909 62.75 63.5909C66.4509 63.5909 69.4545 60.5873 69.4545 56.8864V28.7273C69.4545 22.8005 64.6541 18 58.7273 18C52.8005 18 48 22.8005 48 28.7273V62.25C48 70.4027 54.5973 77 62.75 77C70.9027 77 77.5 70.4027 77.5 62.25V31.4091H73.4773Z" fill="#413F3F" fill-opacity="0.87"/>
</g>
<defs>
<clipPath id="clip0_33_73">
<rect width="96" height="96" fill="white"/>
</clipPath>
</defs>
</svg>